<?xml version="1.0" encoding="utf-8"?>
<!-- Generator: Adobe Illustrator 21.0.2, SVG Export Plug-In . SVG Version: 6.00 Build 0)  -->
<svg version="1.1" id="_x30_" xmlns="http://www.w3.org/2000/svg" xmlns:xlink="http://www.w3.org/1999/xlink" x="0px" y="0px"
	 viewBox="0 0 612 792" style="enable-background:new 0 0 612 792;" xml:space="preserve">
<style type="text/css">
	.st0{fill:none;stroke:#000000;stroke-width:0.25;stroke-linecap:round;stroke-linejoin:round;stroke-miterlimit:10;}
</style>
<path id="CIRCLE" class="st0" d="M258.8,371.2c0-26,21.1-47.2,47.2-47.2s47.2,21.1,47.2,47.2c0,26-21.1,47.2-47.2,47.2
	S258.8,397.2,258.8,371.2L258.8,371.2z"/>
<path class="st0" d="M272,391c-1.6,0-2.8-1.3-2.8-2.8v-34c0-1.6,1.3-2.8,2.8-2.8h68c1.6,0,2.8,1.3,2.8,2.8v34c0,1.6-1.3,2.8-2.8,2.8
	H272z"/>
<path class="st0" d="M266.3,388.2v-34c0-3.1,2.5-5.7,5.7-5.7h68c3.1,0,5.7,2.5,5.7,5.7v34c0,3.1-2.5,5.7-5.7,5.7h-68
	C268.9,393.8,266.3,391.3,266.3,388.2z"/>
<path id="CIRCLE_1_" class="st0" d="M238.7,371.2c0-37.2,30.1-67.3,67.3-67.3s67.3,30.1,67.3,67.3s-30.1,67.3-67.3,67.3
	S238.7,408.3,238.7,371.2L238.7,371.2z"/>
<g>
	<path class="st0" d="M360.8,378.4c-3.3,24.7-22.7,44.2-47.5,47.5c-30.3,4-58.1-17.2-62.1-47.5c-0.1-0.8,0.4-1.5,1.2-1.6
		c0.8-0.1,1.5,0.4,1.6,1.2c3.8,28.7,30.1,48.9,58.8,45.2c23.5-3.1,42-21.6,45.2-45.1c0.1-0.8,0.8-1.3,1.6-1.2
		C360.4,376.9,360.9,377.7,360.8,378.4z"/>
	<path class="st0" d="M358,364.3c0.1,0.8,0.8,1.3,1.6,1.2c0.8-0.1,1.3-0.8,1.2-1.6c-4-30.3-31.8-51.6-62-47.6
		c-24.8,3.3-44.2,22.7-47.6,47.5c-0.1,0.8,0.4,1.5,1.1,1.7s1.5-0.4,1.7-1.1c3.1-23.5,21.6-42.1,45.1-45.2
		C327.9,315.4,354.2,335.6,358,364.3z"/>
</g>
<g>
	<path class="st0" d="M325,398h-3.3v9.7h-4.7V398h-3.3v10.4c0,0.1,0,0.1,0,0.2c0,0.1,0.1,0.1,0.1,0.2c0,0.1,0.1,0.1,0.1,0.2
		c0.1,0,0.1,0.1,0.2,0.1c0.1,0,0.2,0.1,0.3,0.1c0.1,0,0.2,0.1,0.3,0.1c0.1,0,0.2,0,0.4,0c0.1,0,0.3,0,0.4,0c0,0,7.8,0,7.8,0
		c0.1,0,0.3,0,0.4,0c0.1,0,0.2,0,0.4,0c0.1,0,0.2,0,0.3-0.1c0.1,0,0.2-0.1,0.3-0.1c0.1,0,0.1-0.1,0.2-0.1c0.1,0,0.1-0.1,0.1-0.2
		c0-0.1,0.1-0.1,0.1-0.2c0-0.1,0-0.1,0-0.2V398z"/>
	<path class="st0" d="M297.1,408.4v-5.3h-5.9v1.6h2.5v2.9H289v-8.1h4.7v1.8h3.3v-2.5c0-0.1,0-0.1,0-0.2c0-0.1-0.1-0.1-0.1-0.2
		c0-0.1-0.1-0.1-0.1-0.2c-0.1,0-0.1-0.1-0.2-0.1s-0.2-0.1-0.3-0.1c-0.1,0-0.2-0.1-0.3-0.1c-0.1,0-0.2,0-0.4,0c-0.1,0-0.3,0-0.4,0
		c0,0-7.7,0-7.7,0c-0.1,0-0.3,0-0.4,0c-0.1,0-0.2,0-0.4,0c-0.1,0-0.2,0-0.3,0.1c-0.1,0-0.2,0.1-0.3,0.1c-0.1,0-0.1,0.1-0.2,0.1
		c-0.1,0-0.1,0.1-0.2,0.2c0,0.1-0.1,0.1-0.1,0.2c0,0.1,0,0.1,0,0.2c0,0,0,9.5,0,9.5c0,0.1,0,0.1,0,0.2c0,0.1,0.1,0.1,0.1,0.2
		c0,0.1,0.1,0.1,0.1,0.2c0.1,0,0.1,0.1,0.2,0.1s0.2,0.1,0.3,0.1c0.1,0,0.2,0.1,0.3,0.1c0.1,0,0.2,0,0.4,0c0.1,0,0.3,0,0.4,0
		c0,0,7.8,0,7.8,0c0.1,0,0.3,0,0.4,0c0.1,0,0.2,0,0.4,0c0.1,0,0.2,0,0.3-0.1c0.1,0,0.2-0.1,0.3-0.1s0.1-0.1,0.2-0.1
		c0.1,0,0.1-0.1,0.1-0.2c0-0.1,0.1-0.1,0.1-0.2C297.1,408.6,297.1,408.5,297.1,408.4z"/>
	<path class="st0" d="M310.8,404.3v-5.5c0-0.1,0-0.1,0-0.2c0-0.1-0.1-0.1-0.1-0.2c0-0.1-0.1-0.1-0.1-0.2c-0.1,0-0.1-0.1-0.2-0.1
		s-0.2-0.1-0.3-0.1c-0.1,0-0.2-0.1-0.3-0.1c-0.1,0-0.2,0-0.4,0c-0.1,0-0.3,0-0.4,0h-9.1v11.3h3.3v-4.1c0,0,5.7,0,5.7,0
		c0.1,0,0.3,0,0.4,0c0.1,0,0.2,0,0.4,0c0.1,0,0.2,0,0.3-0.1c0.1,0,0.2-0.1,0.3-0.1s0.1-0.1,0.2-0.1c0.1,0,0.1-0.1,0.1-0.2
		c0-0.1,0.1-0.1,0.1-0.2C310.8,404.5,310.8,404.4,310.8,404.3z M307.4,399.6h-4.2v4h4.2V399.6z"/>
</g>
<g>
	<g id="SPLINE_12_">
		<path class="st0" d="M297.1,334.3v2.8h-3.3v-2H289v8.1h4.7v-2h3.3v2.8c0,0.1,0,0.1,0,0.2c0,0.1-0.1,0.1-0.1,0.2
			c0,0.1-0.1,0.1-0.1,0.2c-0.1,0-0.1,0.1-0.2,0.1s-0.2,0.1-0.3,0.1c-0.1,0-0.2,0.1-0.3,0.1c-0.1,0-0.2,0-0.4,0c-0.1,0-0.3,0-0.4,0
			c0,0-7.8,0-7.8,0c-0.1,0-0.3,0-0.4,0c-0.1,0-0.2,0-0.4,0c-0.1,0-0.2,0-0.3-0.1c-0.1,0-0.2-0.1-0.3-0.1s-0.1-0.1-0.2-0.1
			c-0.1,0-0.1-0.1-0.1-0.2c0-0.1-0.1-0.1-0.1-0.2c0-0.1,0-0.1,0-0.2c0,0,0-9.5,0-9.5c0-0.1,0-0.1,0-0.2c0-0.1,0.1-0.1,0.1-0.2
			c0-0.1,0.1-0.1,0.1-0.2c0.1,0,0.1-0.1,0.2-0.1c0.1,0,0.2-0.1,0.3-0.1c0.1,0,0.2-0.1,0.3-0.1c0.1,0,0.2,0,0.4,0c0.1,0,0.3,0,0.4,0
			c0,0,7.8,0,7.8,0c0.1,0,0.3,0,0.4,0c0.1,0,0.2,0,0.4,0c0.1,0,0.2,0,0.3,0.1c0.1,0,0.2,0.1,0.3,0.1c0.1,0,0.1,0.1,0.2,0.1
			c0.1,0,0.1,0.1,0.1,0.2c0,0.1,0.1,0.1,0.1,0.2C297.1,334.1,297.1,334.2,297.1,334.3z"/>
	</g>
	<g id="SPLINE_15_">
		<path class="st0" d="M325,333.4h-3.3v9.7h-4.7v-9.7h-3.3v10.4c0,0.1,0,0.1,0,0.2c0,0.1,0.1,0.1,0.1,0.2c0,0.1,0.1,0.1,0.1,0.2
			c0.1,0,0.1,0.1,0.2,0.1c0.1,0,0.2,0.1,0.3,0.1c0.1,0,0.2,0.1,0.3,0.1c0.1,0,0.2,0,0.4,0c0.1,0,0.3,0,0.4,0c0,0,7.8,0,7.8,0
			c0.1,0,0.3,0,0.4,0c0.1,0,0.2,0,0.4,0c0.1,0,0.2,0,0.3-0.1c0.1,0,0.2-0.1,0.3-0.1c0.1,0,0.1-0.1,0.2-0.1c0.1,0,0.1-0.1,0.1-0.2
			c0-0.1,0.1-0.1,0.1-0.2c0-0.1,0-0.1,0-0.2V333.4z"/>
	</g>
	<g id="SPLINE_6_">
		<path class="st0" d="M310.8,334.3v5.5c0,0.1,0,0.1,0,0.2c0,0.1-0.1,0.1-0.1,0.2c0,0.1-0.1,0.1-0.1,0.2c-0.1,0-0.1,0.1-0.2,0.1
			s-0.2,0.1-0.3,0.1c-0.1,0-0.2,0.1-0.3,0.1c-0.1,0-0.2,0-0.4,0c-0.1,0-0.3,0-0.4,0h-5.7v4.1h-3.3v-11.3c0,0,9.1,0,9.1,0
			c0.1,0,0.3,0,0.4,0c0.1,0,0.2,0,0.4,0c0.1,0,0.2,0,0.3,0.1c0.1,0,0.2,0.1,0.3,0.1c0.1,0,0.1,0.1,0.2,0.1c0.1,0,0.1,0.1,0.1,0.2
			c0,0.1,0.1,0.1,0.1,0.2C310.8,334.1,310.8,334.2,310.8,334.3z"/>
	</g>
	<g id="LINE_124_">
		<rect x="303.2" y="335" class="st0" width="4.2" height="4"/>
	</g>
</g>
</svg>
